# xmcd
#
# Track frame offsets:
#  150
#  23916
#  41796
#  57705
#  81591
#  97134
#  102628
#  107119
#  122068
#  146867
#  157741
#  181899
#  196179
#  209161
#  227333
#  231658
#  239366
#  266236
#  283583
#  294888
#  306711
#  313936
#  318903
#  324618
#  331449
#  337252
#  344071
#  348061
#
# Disc length: 4723 seconds
#
# Revision: 0
# Processed by: cddbd v1.5.1PL2 Copyright (c) Steve Scherf et al.
# Submitted via: Collectorz.com_Music_Collector 6.9
#
DISCID=cd12711c
DTITLE=Bruce Springsteen - Fistfull Of Dollars (Nebraska Demos)
DYEAR=1981
DGENRE=Acoustic
TTITLE0=Vietnam
TTITLE1=Johnny 99 #1
TTITLE2=Johnny 99 #2
TTITLE3=The Answer
TTITLE4=Love Is A Dangerous Thing
TTITLE5=Downbound Train
TTITLE6=Red River Rock
TTITLE7=Used Cars #1
TTITLE8=Used Cars #2
TTITLE9=Born In The Usa #1
TTITLE10=Born In The Usa #2
TTITLE11=Born In The Usa #3
TTITLE12=Born In The Usa #4
TTITLE13=Born In The Usa/Shut Out The Light
TTITLE14=Club Soul City
TTITLE15=Atlantic City
TTITLE16=Fade To Black
TTITLE17=Fistfull Of Dollars #1
TTITLE18=Fistfull Of Dollars #2
TTITLE19=Bye Bye Johnny
TTITLE20=Riding Horse
TTITLE21=Party Lights
TTITLE22=Summer Night
TTITLE23=My Heart Is An Open Book
TTITLE24=Robert Ford And Jesse James
TTITLE25=Danger Zone
TTITLE26=Daniel In The Lion's Den
TTITLE27=Open All Night
EXTD=
EXTT0=
EXTT1=
EXTT2=
EXTT3=
EXTT4=
EXTT5=
EXTT6=
EXTT7=
EXTT8=
EXTT9=
EXTT10=
EXTT11=
EXTT12=
EXTT13=
EXTT14=
EXTT15=
EXTT16=
EXTT17=
EXTT18=
EXTT19=
EXTT20=
EXTT21=
EXTT22=
EXTT23=
EXTT24=
EXTT25=
EXTT26=
EXTT27=
PLAYORDER=
